<svg xmlns="http://www.w3.org/2000/svg" version="1.1" xmlns:xlink="http://www.w3.org/1999/xlink" xmlns:svgjs="http://svgjs.dev/svgjs" width="128" height="128" viewBox="0 0 128 128"><g transform="matrix(0.8046875,0,0,0.8046875,12.506335372881338,12.506335372881338)"><svg viewBox="0 0 59 59" data-background-color="#ffffff" preserveAspectRatio="xMidYMid meet" height="128" width="128" xmlns="http://www.w3.org/2000/svg" xmlns:xlink="http://www.w3.org/1999/xlink"><g id="tight-bounds" transform="matrix(1,0,0,1,-0.0036289999999894462,-0.0036289999999894462)"><svg viewBox="0 0 59.00725799999999 59.00725799999999" height="59.00725799999999" width="59.00725799999999"><g><svg viewBox="0 0 59.00725799999999 59.00725799999999" height="59.00725799999999" width="59.00725799999999"><g><svg viewBox="0 0 59.00725799999999 59.00725799999999" height="59.00725799999999" width="59.00725799999999"><g><svg viewBox="0 0 59.00725799999999 59.00725799999999" height="59.00725799999999" width="59.00725799999999"><g id="textblocktransform"><svg viewBox="0 0 59.00725799999999 59.00725799999999" height="59.00725799999999" width="59.00725799999999" id="textblock"><g><svg viewBox="0 0 59.00725799999999 59.00725799999999" height="59.00725799999999" width="59.00725799999999"><g><svg viewBox="0 0 59.00725799999999 59.00725799999999" height="59.00725799999999" width="59.00725799999999"><g><svg xmlns="http://www.w3.org/2000/svg" xmlns:xlink="http://www.w3.org/1999/xlink" version="1.1" x="0" y="0" viewBox="0 0 100 100" enable-background="new 0 0 100 100" xml:space="preserve" height="59.00725799999999" width="59.00725799999999" class="icon-icon-0" data-fill-palette-color="accent" id="icon-0"><path fill="#ffffff" d="M40 80c22.056 0 40-17.944 40-40 0-3.499-0.455-6.894-1.303-10.131l-4.614 10.382-6.774 6.814 1.249 1.31-7.553 5.13-2.071-2.172 5.48-7.302L66 45.694l6.167-6.277 5.611-12.538C72.334 11.25 57.461 0 40 0 17.944 0 0 17.944 0 40S17.944 80 40 80zM40 23c9.374 0 17 7.626 17 17s-7.626 17-17 17-17-7.626-17-17S30.626 23 40 23z" data-fill-palette-color="accent"></path><path fill="#ffffff" d="M40 52c6.628 0 12-5.372 12-12s-5.372-12-12-12-12 5.372-12 12S33.372 52 40 52zM40 38c1.104 0 2 0.896 2 2s-0.896 2-2 2-2-0.896-2-2S38.896 38 40 38z" data-fill-palette-color="accent"></path><path fill="#ffffff" d="M27.18 0H6C2 0 0 2 0 6v21.18C4.126 14.298 14.298 4.126 27.18 0z" data-fill-palette-color="accent"></path><path fill="#ffffff" d="M87 79c-4.411 0-8 3.589-8 8s3.589 8 8 8 8-3.589 8-8S91.411 79 87 79z" data-fill-palette-color="accent"></path><path fill="#ffffff" d="M94 0H52.829c11.89 3.812 21.47 12.78 26.115 24.273l2.913-6.507c-1.548-1.023-2.571-2.777-2.571-4.767 0-3.15 2.563-5.714 5.714-5.714S90.714 9.85 90.714 13 88.15 18.714 85 18.714c-0.44 0-0.867-0.055-1.279-0.149l-3.768 8.478C81.276 31.124 82 35.477 82 40c0 23.196-18.804 42-42 42C21.275 82 5.42 69.745 0 52.82V94c0 4 2 6 6 6h88c4 0 6-2 6-6V6C100 2 98 0 94 0zM8 97c-2.209 0-4-1.791-4-4s1.791-4 4-4 4 1.791 4 4S10.209 97 8 97zM20 97c-2.209 0-4-1.791-4-4s1.791-4 4-4 4 1.791 4 4S22.209 97 20 97zM32 97c-2.209 0-4-1.791-4-4s1.791-4 4-4 4 1.791 4 4S34.209 97 32 97zM87 97c-5.514 0-10-4.486-10-10s4.486-10 10-10 10 4.486 10 10S92.514 97 87 97z" data-fill-palette-color="accent"></path></svg></g></svg></g></svg></g></svg></g></svg></g></svg></g></svg></g><defs></defs></svg><rect width="59.00725799999999" height="59.00725799999999" fill="none" stroke="none" visibility="hidden"></rect></g></svg></g></svg>